<svg width="171" height="42" fill="none" xmlns="http://www.w3.org/2000/svg">
	<path d="m21.7 21.8 21-.4v-.8l-21-.4v1.6Z" fill="#FC5842" />
	<path
		d="M22.1 10.5h-.8L20.8 0h1.7l-.4 10.5ZM21.3 31.5h.8l.4 10.5h-1.7l.5-10.5ZM11.2 20.6v.8l-10.5.4v-1.6l10.5.4ZM29.4 13.9l-.6-.6L36 5.6l1.2 1.1-7.7 7.2ZM14 28.1l.6.6-7.2 7.7-1.2-1.1L14 28ZM28.8 28.7l.6-.6 7.7 7.2-1.2 1.1-7-7.7ZM14.6 13.3l-.6.6-7.8-7.2 1.2-1.1 7.2 7.7ZM18 11.1l-.7.4-4.4-9.6 1.5-.6 3.7 9.8ZM25.3 30.9l.8-.4 4.4 9.6-1.6.6-3.6-9.8ZM11.8 24.6l.3.8-9.5 4.4-.6-1.5 9.8-3.7ZM26.1 11.5l-.8-.4L29 1.3l1.6.6-4.4 9.6ZM17.3 30.5l.8.4-3.7 9.8-1.5-.6 4.4-9.6ZM31.2 25.4l.4-.8 9.8 3.7-.6 1.5-9.6-4.4ZM12.1 16.6l-.3.8L2 13.7l.6-1.5 9.5 4.4ZM20 10.6l-.8.2L16.8.6l1.6-.4 1.7 10.4ZM23.3 31.4l.8-.2 2.5 10.2-1.6.4-1.7-10.4ZM11.3 22.6l.2.9-10.2 2.4-.4-1.6 10.4-1.7ZM27.9 12.5l-.7-.5 5.5-9L34 4l-6.2 8.5ZM15.5 29.5l.7.5-5.5 9-1.4-1 6.2-8.5ZM30.2 27.2l.5-.7 9 5.5-1 1.4-8.5-6.2ZM13.2 14.8l-.5.7-9-5.5 1-1.4 8.5 6.2ZM16.2 12l-.7.5L9.3 4l1.4-1 5.5 9ZM27.2 30l.7-.5L34 38l-1.4 1-5.5-9ZM30.7 15.5l-.5-.7 8.5-6.2 1 1.4-9 5.5ZM12.7 26.5l.5.7-8.5 6.2-1-1.4 9-5.5ZM24.1 10.8l-.8-.2L25 .2l1.6.4-2.5 10.2ZM19.2 31.2l.9.2-1.7 10.4-1.6-.4 2.4-10.2ZM32 23.5v-.9l10.4 1.7-.3 1.6L32 23.5ZM11.5 18.5l-.2.9L1 17.7l.4-1.6 10.2 2.4ZM76.8 26c2.4 2 4.7 3 6.9 3 1.2 0 2.1-.3 2.8-.8a2.4 2.4 0 0 0 1-2.1c0-.5-.1-1-.5-1.5-.3-.4-1-.8-1.8-1.3l-3.7-1.7A9 9 0 0 1 78 19c-.6-1-1-2-1-3.2a5.9 5.9 0 0 1 2.2-4.7c.7-.6 1.5-1 2.4-1.2a9.3 9.3 0 0 1 8.7 1.7V16a11 11 0 0 0-3-2.2c-1-.5-2-.8-3.1-.8-1 0-1.8.3-2.4.7a2.2 2.2 0 0 0-.9 1.9c0 .5.2 1 .5 1.3.3.4.8.8 1.6 1.1l3.5 1.6 2.3 1.3c.6.4 1 .9 1.5 1.4.4.4.7 1 .8 1.6l.3 1.8a6.1 6.1 0 0 1-2.4 5c-.7.6-1.6 1-2.5 1.3a11.5 11.5 0 0 1-9.7-1.8V26ZM93.2 21a11.4 11.4 0 0 1 17.1-9.9v4.7a6.8 6.8 0 0 0-2.4-1.7 8 8 0 0 0-6.2 0 7 7 0 0 0-3.9 4 7.8 7.8 0 0 0 0 5.8 7.3 7.3 0 0 0 6.9 4.6 8 8 0 0 0 3.2-.6c.9-.4 1.7-1 2.4-1.8V31a10.9 10.9 0 0 1-5.7 1.5c-1.5 0-3-.3-4.5-.9a11.7 11.7 0 0 1-6-6c-.6-1.5-1-3-1-4.5ZM123.8 9.5a11 11 0 0 1 10.4 7 11.6 11.6 0 0 1 0 9 11.6 11.6 0 0 1-6 6 11.3 11.3 0 0 1-14.9-6 11.7 11.7 0 0 1 2.4-12.6 11.2 11.2 0 0 1 8-3.4Zm0 19.1a6.8 6.8 0 0 0 5.2-2.3c.6-.7 1.1-1.5 1.5-2.4a8 8 0 0 0 0-5.9c-.4-.9-.9-1.7-1.5-2.4a7 7 0 0 0-8.2-1.7 7 7 0 0 0-3.7 4.1 8.2 8.2 0 0 0 1.5 8.3 7.1 7.1 0 0 0 5.2 2.3ZM138 32V10h6.2c1.2-.1 2.3 0 3.5.4a8 8 0 0 1 2.6 1.4 6 6 0 0 1 1.7 2.1c.4 1 .6 1.9.6 2.9 0 1.3-.4 2.6-1.1 3.7-.9 1-2 1.9-3.3 2.3l7 9.2h-4.8l-6.4-8.5h-2V32h-4Zm4-11.8h2.2c1.3 0 2.3-.3 3-.9a3 3 0 0 0 1.2-2.5c0-1.1-.4-2-1.1-2.6-.8-.6-1.8-1-3-1H142v7ZM156.9 10h13.6v3.3H161V19h8.9v3.5h-8.9v6.2h9.7V32h-13.7V10ZM64 9.6a10.5 10.5 0 0 1 9.3 5.4L70 17.1c-.6-1-1.5-2-2.5-2.7-1-.6-2.2-1-3.4-1a6.9 6.9 0 0 0-5.2 2.3c-.6.7-1.1 1.5-1.5 2.4a8 8 0 0 0 3.8 10c1 .4 2 .6 3 .6 1.6 0 3-.4 4-1.3 1.2-1 2-2.2 2.3-3.7h-6.1v-3.4h10.3c.2 1.6 0 3.2-.4 4.8a9.9 9.9 0 0 1-5.6 6.5 11.7 11.7 0 0 1-9 0 11.4 11.4 0 0 1-7-10.6 11.5 11.5 0 0 1 7-10.5c1.3-.6 2.8-1 4.4-1Z"
		fill="#fff" />
</svg>
